<svg width="50" height="60" fill="none" xmlns="http://www.w3.org/2000/svg"><rect width="50" height="50" rx="25" fill="#fff" fill-opacity=".3"/><g clip-path="url(#clip0)"><path d="M40 15.889a11.983 11.983 0 01-3.534 1.001 6.353 6.353 0 002.705-3.516 12.166 12.166 0 01-3.91 1.544 6.046 6.046 0 00-4.492-2.008c-3.398 0-6.154 2.847-6.154 6.357 0 .498.054.984.16 1.45-5.115-.266-9.65-2.798-12.685-6.645a6.472 6.472 0 00-.832 3.196c0 2.206 1.087 4.153 2.737 5.292a6.003 6.003 0 01-2.788-.798v.08c0 3.08 2.122 5.65 4.936 6.235a6.042 6.042 0 01-1.621.223c-.398 0-.782-.04-1.159-.118.784 2.528 3.056 4.366 5.748 4.417a12.097 12.097 0 01-7.643 2.717c-.497 0-.986-.03-1.468-.087a16.991 16.991 0 009.433 2.861c11.321 0 17.51-9.69 17.51-18.092l-.021-.824A12.523 12.523 0 0040 15.89z" fill="#fff"/></g><defs><clipPath id="clip0"><path fill="#fff" transform="translate(10 10)" d="M0 0h30v31H0z"/></clipPath></defs></svg>