<svg width="50" height="60" fill="none" xmlns="http://www.w3.org/2000/svg"><rect width="50" height="50" rx="25" fill="#fff" fill-opacity=".3"/><path d="M31 9H19C13.478 9 9 13.478 9 19v12c0 5.522 4.478 10 10 10h12c5.522 0 10-4.478 10-10V19c0-5.522-4.478-10-10-10zm7 22c0 3.86-3.14 7-7 7H19c-3.86 0-7-3.14-7-7V19c0-3.86 3.14-7 7-7h12c3.86 0 7 3.14 7 7v12z" fill="#fff"/><path d="M25 17a8 8 0 100 16 8 8 0 000-16zm0 13c-2.756 0-5-2.244-5-5 0-2.758 2.244-5 5-5s5 2.242 5 5c0 2.756-2.244 5-5 5zm8.6-12.534a1.066 1.066 0 100-2.132 1.066 1.066 0 000 2.132z" fill="#fff"/></svg>